<svg width="18" height="18" viewBox="0 0 18 18" fill="none" xmlns="http://www.w3.org/2000/svg">
<path d="M8.99984 17.3334C7.86095 17.3334 6.78456 17.1145 5.77067 16.6767C4.75678 16.2395 3.8715 15.6423 3.11484 14.8851C2.35761 14.1284 1.76039 13.2431 1.32317 12.2292C0.885393 11.2154 0.666504 10.139 0.666504 9.00008C0.666504 7.8473 0.885393 6.76758 1.32317 5.76091C1.76039 4.75369 2.35761 3.87175 3.11484 3.11508C3.8715 2.35786 4.75678 1.76036 5.77067 1.32258C6.78456 0.885359 7.86095 0.666748 8.99984 0.666748C10.1526 0.666748 11.2323 0.885359 12.239 1.32258C13.2462 1.76036 14.1282 2.35786 14.8848 3.11508C15.6421 3.87175 16.2393 4.75369 16.6765 5.76091C17.1143 6.76758 17.3332 7.8473 17.3332 9.00008V10.2084C17.3332 11.0279 17.0521 11.7256 16.4898 12.3017C15.9271 12.8784 15.2359 13.1667 14.4165 13.1667C13.9165 13.1667 13.4512 13.0556 13.0207 12.8334C12.5901 12.6112 12.2359 12.3195 11.9582 11.9584C11.5832 12.3334 11.1423 12.6287 10.6357 12.8442C10.1284 13.0592 9.58317 13.1667 8.99984 13.1667C7.84706 13.1667 6.86456 12.7604 6.05234 11.9476C5.23956 11.1354 4.83317 10.1529 4.83317 9.00008C4.83317 7.8473 5.23956 6.86452 6.05234 6.05175C6.86456 5.23952 7.84706 4.83341 8.99984 4.83341C10.1526 4.83341 11.1354 5.23952 11.9482 6.05175C12.7604 6.86452 13.1665 7.8473 13.1665 9.00008V10.2084C13.1665 10.6112 13.2915 10.927 13.5415 11.1559C13.7915 11.3854 14.0832 11.5001 14.4165 11.5001C14.7498 11.5001 15.0415 11.3854 15.2915 11.1559C15.5415 10.927 15.6665 10.6112 15.6665 10.2084V9.00008C15.6665 7.18064 15.0101 5.61452 13.6973 4.30175C12.3851 2.98953 10.8193 2.33341 8.99984 2.33341C7.18039 2.33341 5.61428 2.98953 4.3015 4.30175C2.98928 5.61452 2.33317 7.18064 2.33317 9.00008C2.33317 10.8195 2.98928 12.3854 4.3015 13.6976C5.61428 15.0104 7.18039 15.6667 8.99984 15.6667H13.1665V17.3334H8.99984ZM8.99984 11.5001C9.69428 11.5001 10.2846 11.257 10.7707 10.7709C11.2568 10.2848 11.4998 9.69452 11.4998 9.00008C11.4998 8.30564 11.2568 7.71536 10.7707 7.22925C10.2846 6.74314 9.69428 6.50008 8.99984 6.50008C8.30539 6.50008 7.71511 6.74314 7.229 7.22925C6.74289 7.71536 6.49984 8.30564 6.49984 9.00008C6.49984 9.69452 6.74289 10.2848 7.229 10.7709C7.71511 11.257 8.30539 11.5001 8.99984 11.5001Z" fill="#898989"/>
</svg>
