<svg width="18" height="18" viewBox="0 0 18 18" fill="none" xmlns="http://www.w3.org/2000/svg">
<path fill-rule="evenodd" clip-rule="evenodd" d="M12.7935 17.4442C11.5935 17.4001 8.19266 16.9301 4.631 13.3692C1.07016 9.80756 0.600996 6.40756 0.555996 5.20672C0.489329 3.37672 1.891 1.59922 3.51016 0.905058C3.70514 0.820863 3.91866 0.788808 4.12977 0.812037C4.34088 0.835266 4.54232 0.912982 4.71433 1.03756C6.04766 2.00922 6.96766 3.47922 7.75766 4.63506C7.93148 4.889 8.0058 5.19801 7.96646 5.50322C7.92712 5.80843 7.77687 6.0885 7.54433 6.29006L5.9185 7.49756C5.83995 7.55428 5.78466 7.63758 5.76289 7.73199C5.74113 7.8264 5.75437 7.92551 5.80016 8.01089C6.1685 8.68006 6.8235 9.67672 7.5735 10.4267C8.32433 11.1767 9.36766 11.8751 10.0835 12.2851C10.1732 12.3354 10.2789 12.3495 10.3787 12.3244C10.4785 12.2993 10.5649 12.2369 10.6202 12.1501L11.6785 10.5392C11.8731 10.2808 12.1601 10.1076 12.4795 10.056C12.7989 10.0045 13.1258 10.0785 13.3918 10.2626C14.5643 11.0742 15.9327 11.9784 16.9343 13.2609C17.069 13.4341 17.1547 13.6404 17.1824 13.8581C17.2101 14.0758 17.1788 14.2969 17.0918 14.4984C16.3943 16.1259 14.6293 17.5117 12.7935 17.4442Z" fill="#898989"/>
</svg>
